<?xml version="1.0" encoding="UTF-8" standalone="no"?>
<svg width="25px" height="25px" viewBox="0 0 25 25" version="1.1" xmlns="http://www.w3.org/2000/svg" xmlns:xlink="http://www.w3.org/1999/xlink">
    <!-- Generator: Sketch 40.3 (33839) - http://www.bohemiancoding.com/sketch -->
    <title>icon-dribbble</title>
    <desc>Created with Sketch.</desc>
    <defs></defs>
    <g id="Page-1" stroke="none" stroke-width="1" fill="none" fill-rule="evenodd">
        <g id="Desktop" transform="translate(-197.000000, -523.000000)" fill="#000000">
            <path d="M221.745693,532.98442 C221.582525,532.180434 221.335568,531.389676 221.016581,530.634194 C220.704945,529.893409 220.3154,529.179082 219.864115,528.511788 C219.41724,527.850373 218.904216,527.227174 218.339742,526.662767 C217.773799,526.09689 217.151996,525.583926 216.489034,525.137104 C215.821662,524.684402 215.10725,524.297842 214.366379,523.983303 C213.610807,523.665824 212.819956,523.417426 212.017346,523.255747 C211.194155,523.086719 210.347445,523 209.500735,523 C208.652555,523 207.805845,523.086719 206.982654,523.255747 C206.180044,523.417426 205.389193,523.665824 204.633621,523.983303 C203.89275,524.297842 203.178338,524.684402 202.509496,525.137104 C201.848004,525.583926 201.226201,526.09689 200.660258,526.662767 C200.094314,527.227174 199.58276,527.850373 199.135885,528.511788 C198.68313,529.179082 198.295055,529.893409 197.981949,530.634194 C197.662962,531.389676 197.417475,532.180434 197.252837,532.98442 C197.085259,533.804574 197,534.652654 197,535.499265 C197,536.347346 197.085259,537.195426 197.252837,538.01852 C197.417475,538.819566 197.662962,539.611794 197.981949,540.365806 C198.295055,541.106591 198.68313,541.822388 199.135885,542.491152 C199.58276,543.152566 200.094314,543.772826 200.660258,544.338703 C201.226201,544.90458 201.848004,545.416074 202.509496,545.862896 C203.178338,546.315598 203.89275,546.703627 204.633621,547.016697 C205.389193,547.335646 206.180044,547.579634 206.982654,547.744253 C207.805845,547.914751 208.652555,548 209.500735,548 C210.347445,548 211.194155,547.914751 212.017346,547.744253 C212.819956,547.579634 213.610807,547.335646 214.366379,547.016697 C215.10725,546.703627 215.821662,546.315598 216.489034,545.862896 C217.151996,545.416074 217.773799,544.90458 218.339742,544.338703 C218.904216,543.772826 219.41724,543.152566 219.864115,542.491152 C220.3154,541.822388 220.704945,541.106591 221.016581,540.365806 C221.335568,539.611794 221.582525,538.819566 221.745693,538.01852 C221.914741,537.195426 222,536.347346 222,535.499265 C222,534.652654 221.914741,533.804574 221.745693,532.98442 L221.745693,532.98442 Z M220.172811,535.393439 C220.018463,535.359633 216.405245,534.582104 212.737637,535.043624 C212.661198,534.861368 212.584759,534.677641 212.50685,534.493915 C212.283413,533.970663 212.045275,533.453289 211.796848,532.944735 C216.012759,531.223588 217.72382,528.748427 217.744399,528.719031 C219.240842,530.538656 220.147821,532.860956 220.172811,535.393439 L220.172811,535.393439 Z M216.550773,527.4888 C216.524314,527.529955 215.004351,529.844906 210.973658,531.354401 C209.149409,528.001764 207.144352,525.338468 206.984124,525.126815 C207.791145,524.93133 208.633445,524.825504 209.500735,524.825504 C212.202564,524.825504 214.669195,525.833794 216.550773,527.4888 L216.550773,527.4888 Z M206.942965,525.135634 C206.942965,525.137104 206.941495,525.137104 206.941495,525.137104 C206.941495,525.137104 206.928265,525.140044 206.909155,525.144453 C206.919445,525.141513 206.931205,525.140044 206.942965,525.135634 L206.942965,525.135634 Z M204.945258,525.845552 C205.086376,526.036628 207.062033,528.711682 208.909802,531.996708 C203.783971,533.359222 199.334333,533.304839 199.052096,533.300429 C199.745928,529.993356 201.967072,527.252161 204.945258,525.845552 L204.945258,525.845552 Z M198.824249,535.499265 C198.824249,535.38609 198.830129,535.274384 198.833069,535.162679 C199.021227,535.167088 204.296995,535.286143 209.793262,533.641425 C210.099018,534.239638 210.391545,534.848139 210.659082,535.455171 C210.517963,535.494856 210.378315,535.53748 210.238666,535.583044 C204.477803,537.445294 201.555477,542.627844 201.555477,542.627844 C201.555477,542.627844 201.559887,542.632254 201.559887,542.633723 C199.859117,540.742078 198.824249,538.241931 198.824249,535.499265 L198.824249,535.499265 Z M209.500735,546.174496 C206.916505,546.174496 204.546892,545.255865 202.699124,543.728732 C202.840242,543.841907 202.938731,543.915398 202.938731,543.915398 C202.938731,543.915398 204.984947,539.453054 211.316164,537.246869 C211.339684,537.23805 211.363203,537.230701 211.388193,537.223352 C212.890516,541.127168 213.509378,544.396026 213.668137,545.329355 C212.387782,545.873185 210.978068,546.174496 209.500735,546.174496 L209.500735,546.174496 Z M215.465926,544.353401 C215.357147,543.709624 214.788264,540.575989 213.38737,536.729496 C216.83448,536.178317 219.820015,537.123405 220.040513,537.195426 C219.565708,540.168852 217.861998,542.73514 215.465926,544.353401 L215.465926,544.353401 Z" id="icon-dribbble"></path>
        </g>
    </g>
</svg>