<?xml version="1.0" encoding="UTF-8" standalone="no"?>
<svg width="26px" height="22px" viewBox="0 0 26 22" version="1.1" xmlns="http://www.w3.org/2000/svg" xmlns:xlink="http://www.w3.org/1999/xlink">
    <!-- Generator: Sketch 40.3 (33839) - http://www.bohemiancoding.com/sketch -->
    <title>icon-twitter</title>
    <desc>Created with Sketch.</desc>
    <defs></defs>
    <g id="Page-1" stroke="none" stroke-width="1" fill="none" fill-rule="evenodd">
        <g id="Desktop" transform="translate(-85.000000, -524.000000)" fill="#000000">
            <path d="M107.937137,527.478116 C109.038974,526.791709 109.884428,525.703308 110.281211,524.40676 C109.249574,525.043912 108.109585,525.504694 106.893291,525.754153 C105.922698,524.673696 104.535482,524 103.000235,524 C100.054881,524 97.6680754,526.486639 97.6680754,529.553228 C97.6680754,529.988589 97.712332,530.412827 97.8038974,530.817998 C93.3721312,530.586018 89.4424488,528.377438 86.8099431,525.015311 C86.3505899,525.838365 86.0881024,526.791709 86.0881024,527.808609 C86.0881024,529.734364 87.0297001,531.434494 88.4611727,532.432327 C87.586723,532.403727 86.7641604,532.151091 86.0438457,531.737975 L86.0438457,531.806298 C86.0438457,534.497906 87.8812584,536.74303 90.324529,537.251481 C89.8758584,537.381771 89.4058226,537.446916 88.9174737,537.446916 C88.5741034,537.446916 88.2383636,537.413549 87.9148324,537.348404 C88.5924165,539.553806 90.562599,541.16178 92.8975172,541.20468 C91.0707871,542.695074 88.7709691,543.581684 86.2727593,543.581684 C85.8424018,543.581684 85.4166226,543.557851 85,543.505417 C87.3608617,545.080023 90.1642895,546 93.1767917,546 C102.989552,546 108.352233,537.537484 108.352233,530.198324 C108.352233,529.956811 108.349181,529.716886 108.338499,529.480139 C109.380818,528.696808 110.287316,527.718041 111,526.604218 C110.043141,527.045934 109.014557,527.344648 107.937137,527.478116 Z" id="icon-twitter"></path>
        </g>
    </g>
</svg>