<?xml version="1.0" encoding="UTF-8"?>
<svg width="26px" height="26px" viewBox="0 0 26 26" version="1.1" xmlns="http://www.w3.org/2000/svg" xmlns:xlink="http://www.w3.org/1999/xlink">
    <!-- Generator: Sketch 40.3 (33839) - http://www.bohemiancoding.com/sketch -->
    <title>icon-github</title>
    <desc>Created with Sketch.</desc>
    <defs></defs>
    <g id="Page-1" stroke="none" stroke-width="1" fill="none" fill-rule="evenodd">
        <g id="Desktop" transform="translate(-250.000000, -523.000000)" fill="#000000">
            <path d="M262.998803,523 C255.82105,523 250,528.820252 250,536.000399 C250,541.744038 253.724546,546.616194 258.89039,548.335216 C259.540808,548.454925 259.777832,548.053501 259.777832,547.708739 C259.777832,547.400688 259.76666,546.582676 259.760275,545.498112 C256.144265,546.283403 255.381319,543.755149 255.381319,543.755149 C254.789957,542.2532 253.937629,541.853372 253.937629,541.853372 C252.757298,541.047331 254.027011,541.063292 254.027011,541.063292 C255.33184,541.155069 256.018171,542.403235 256.018171,542.403235 C257.177753,544.389607 259.061174,543.815802 259.801774,543.483011 C259.919887,542.643451 260.25587,542.070444 260.626968,541.745634 C257.740385,541.417631 254.705362,540.301943 254.705362,535.320452 C254.705362,533.901501 255.212131,532.740324 256.043709,531.832131 C255.909635,531.50333 255.463519,530.180945 256.171399,528.391694 C256.171399,528.391694 257.262347,528.042144 259.74591,529.724454 C260.78259,529.435557 261.895086,529.291906 263.000399,529.286319 C264.104914,529.291906 265.216612,529.435557 266.254888,529.724454 C268.736855,528.042144 269.826207,528.391694 269.826207,528.391694 C270.535682,530.180945 270.089567,531.50333 269.956291,531.832131 C270.789466,532.740324 271.292243,533.901501 271.292243,535.320452 C271.292243,540.314712 268.252433,541.413641 265.357071,541.735259 C265.823138,542.136683 266.238927,542.929955 266.238927,544.143006 C266.238927,545.880383 266.222966,547.282575 266.222966,547.708739 C266.222966,548.056693 266.457595,548.461309 267.116793,548.334418 C272.278646,546.611406 276,541.742441 276,536.000399 C276,528.820252 270.17895,523 262.998803,523" id="icon-github"></path>
        </g>
    </g>
</svg>