<?xml version="1.0" encoding="UTF-8" standalone="no"?>
<svg width="25px" height="24px" viewBox="0 0 25 24" version="1.1" xmlns="http://www.w3.org/2000/svg" xmlns:xlink="http://www.w3.org/1999/xlink">
    <!-- Generator: Sketch 40.3 (33839) - http://www.bohemiancoding.com/sketch -->
    <title>icon-linkedin</title>
    <desc>Created with Sketch.</desc>
    <defs></defs>
    <g id="Page-1" stroke="none" stroke-width="1" fill="none" fill-rule="evenodd">
        <g id="Desktop" transform="translate(-143.000000, -523.000000)" fill="#000000">
            <path d="M144.105362,530.695736 L148.783161,530.695736 L148.783161,546.998463 L144.105362,546.998463 L144.105362,530.695736 Z M146.325024,528.65655 L146.291157,528.65655 C144.597836,528.65655 143.5,527.410296 143.5,525.832117 C143.5,524.221667 144.630292,523 146.357479,523 C148.083255,523 149.144403,524.218594 149.178269,525.827507 C149.178269,527.405686 148.083255,528.65655 146.325024,528.65655 L146.325024,528.65655 Z M167.5,547 L162.195673,547 L162.195673,538.562044 C162.195673,536.353823 161.365945,534.847868 159.541392,534.847868 C158.145814,534.847868 157.369708,535.863619 157.008467,536.845563 C156.873001,537.195928 156.894167,537.686131 156.894167,538.177872 L156.894167,547 L151.639229,547 C151.639229,547 151.706961,532.054168 151.639229,530.695736 L156.894167,530.695736 L156.894167,533.254322 C157.20461,532.135613 158.883819,530.538993 161.5635,530.538993 C164.888053,530.538993 167.5,532.885517 167.5,537.933538 L167.5,547 L167.5,547 Z" id="icon-linkedin"></path>
        </g>
    </g>
</svg>