<?xml version="1.0" encoding="UTF-8" standalone="no"?>
<svg width="64px" height="64px" viewBox="0 0 64 64" version="1.1" xmlns="http://www.w3.org/2000/svg" xmlns:xlink="http://www.w3.org/1999/xlink">
    <!-- Generator: Sketch 40.3 (33839) - http://www.bohemiancoding.com/sketch -->
    <title>Combined Shape</title>
    <desc>Created with Sketch.</desc>
    <defs></defs>
    <g id="Page-1" stroke="none" stroke-width="1" fill="none" fill-rule="evenodd">
        <g id="Desktop" transform="translate(-80.000000, -80.000000)" fill="#000000">
            <path d="M80,112 C80,94.326888 94.3230022,80 112,80 C129.673112,80 144,94.3230022 144,112 C144,129.673112 129.676998,144 112,144 C94.326888,144 80,129.676998 80,112 Z M112,142 C128.568542,142 142,128.568542 142,112 C142,95.4314575 128.568542,82 112,82 C95.4314575,82 82,95.4314575 82,112 C82,128.568542 95.4314575,142 112,142 Z M103,120 L121,120 C122.635818,120 124.08816,119.214447 125.000366,118 C124.08816,116.785553 122.635818,116 121,116 L103,116 C99.1340068,116 96,112.865993 96,109 C96,107.926403 96.241691,106.909255 96.6736312,106 C96.241691,105.090745 96,104.073597 96,103 C96,99.1340068 99.1340068,96 103,96 L103,98 C100.238576,98 98,100.238576 98,103 C98,103.342754 98.0344883,103.677454 98.100184,104.000817 C99.3627935,102.763149 101.092275,102 103,102 L121,102 C123.418958,102 125.436712,100.28224 125.899982,98 L103,98 L103,96 L128,96 L128,97 C128,100.865993 124.865993,104 121,104 L103,104 C101.364182,104 99.9118401,104.785553 98.9996338,106 C99.9118401,107.214447 101.364182,108 103,108 L121,108 C124.865993,108 128,111.134007 128,115 C128,116.073597 127.758309,117.090745 127.326369,118 C127.758309,118.909255 128,119.926403 128,121 C128,124.865993 124.865993,128 121,128 L121,126 L98.1000181,126 C98.5632884,123.71776 100.581042,122 103,122 L121,122 C122.907725,122 124.637207,121.236851 125.899816,119.999183 C125.965512,120.322546 126,120.657246 126,121 C126,123.761424 123.761424,126 121,126 L121.00383,128 L97.0019149,128 L96,128 L96,127 C96,123.134007 99.1340068,120 103,120 Z M103,114 C100.238576,114 98,111.761424 98,109 C98,108.657246 98.0344883,108.322546 98.100184,107.999183 C99.3627935,109.236851 101.092275,110 103,110 L121,110 C123.761424,110 126,112.238576 126,115 C126,115.342754 125.965512,115.677454 125.899816,116.000817 C124.637207,114.763149 122.907725,114 121,114 L103,114 Z" id="Combined-Shape"></path>
        </g>
    </g>
</svg>